# xmcd
#
# Track frame offsets:
#	150
#	10631
#	24742
#	39303
#	50973
#	64501
#	75907
#	88871
#	101686
#	112941
#	129802
#	141305
#	153859
#	168142
#
# Disc length: 2419 seconds
#
# Revision: 4
# Processed by: cddbd v1.5.2PL0 Copyright (c) Steve Scherf et al.
# Submitted via: EasyCDDAExtractor 12.0.4.1
#
DISCID=a109710e
DTITLE=Peão Carreiro e Zé Paulo - Alma Sertaneja
DYEAR=2002
DGENRE=Sertanejo
TTITLE0=Porteiro de Hotel
TTITLE1=Encruzilhada
TTITLE2=Mão da Noite
TTITLE3=Chá de Cama
TTITLE4=Recado de Amor
TTITLE5=Voltei pra Ficar
TTITLE6=Crises de Ciúme
TTITLE7=Amor Vadio
TTITLE8=Rabo de Saia
TTITLE9=Pergunte a Ela
TTITLE10=Quatro Paredes
TTITLE11=Ciumento
TTITLE12=Berrante da Saudade
TTITLE13=Doce Ilusão
EXTD=
EXTT0=
EXTT1=
EXTT2=
EXTT3=
EXTT4=
EXTT5=
EXTT6=
EXTT7=
EXTT8=
EXTT9=
EXTT10=
EXTT11=
EXTT12=
EXTT13=
PLAYORDER=
